<?xml version="1.0" encoding="utf-8"?>
<!-- Generator: Avocode 2.6.0 - http://avocode.com -->
<svg height="44" width="207" xmlns:xlink="http://www.w3.org/1999/xlink" xmlns="http://www.w3.org/2000/svg" viewBox="0 0 207 44">
    <path fill="#00a9fb" fill-rule="evenodd" d="M 20.21 24.5 C 20.65 24.92 22.28 26.22 25.05 26.22 C 28.15 26.22 30.11 24.13 30.11 21.86 C 30.11 19.03 27.65 17.75 25.51 16.89 C 23.73 16.17 22.92 15.46 22.92 14.43 C 22.92 13.72 23.6 12.89 24.85 12.89 C 26.06 12.89 27.73 13.99 27.91 14.1 C 28.17 14.27 28.5 14.1 28.68 13.83 L 29.52 12.58 C 29.67 12.36 29.6 11.99 29.38 11.85 C 28.94 11.52 27.23 10.38 24.98 10.38 C 21.49 10.38 20.03 12.65 20.03 14.6 C 20.03 17.2 22.1 18.52 24.17 19.36 C 26.02 20.1 26.96 20.87 26.96 22 C 26.96 22.94 26.11 23.69 24.96 23.69 C 23.53 23.69 21.75 22.39 21.64 22.33 C 21.44 22.17 21.07 22.17 20.89 22.48 L 20.1 23.84 C 19.9 24.2 20.01 24.31 20.21 24.5 L 20.21 24.5 Z M 31.91 25.49 C 31.87 25.8 32.05 26 32.33 26 L 34.31 26 C 34.51 26 34.69 25.82 34.71 25.67 L 35.98 17.33 L 36.05 17.33 L 39.94 25.98 C 40.01 26.11 40.12 26.22 40.32 26.22 L 40.71 26.22 C 40.91 26.22 41.04 26.11 41.09 25.98 L 44.94 17.33 L 45 17.33 L 46.3 25.67 C 46.35 25.82 46.52 26 46.72 26 L 48.72 26 C 49.01 26 49.18 25.8 49.12 25.49 L 46.52 10.71 C 46.5 10.53 46.37 10.38 46.13 10.38 L 45.77 10.38 C 45.58 10.38 45.47 10.47 45.4 10.6 L 40.56 20.98 L 40.49 20.98 L 35.65 10.6 C 35.59 10.47 35.46 10.38 35.28 10.38 L 34.93 10.38 C 34.69 10.38 34.55 10.53 34.53 10.71 L 31.91 25.49 Z M 50.5 26 L 52.42 26 C 52.77 26 52.97 25.78 53.06 25.56 L 54.13 23.18 L 60.71 23.18 L 61.79 25.56 C 61.94 25.87 62.1 26 62.43 26 L 64.34 26 C 64.67 26 64.85 25.71 64.72 25.43 L 57.94 10.62 C 57.87 10.49 57.79 10.38 57.57 10.38 L 57.35 10.38 C 57.15 10.38 57.04 10.49 56.97 10.62 L 50.13 25.43 C 50 25.71 50.17 26 50.5 26 L 50.5 26 Z M 55.21 20.74 L 57.37 15.9 L 57.43 15.9 L 59.63 20.74 L 55.21 20.74 Z M 66.72 25.58 C 66.72 25.8 66.89 26 67.14 26 L 69.16 26 C 69.38 26 69.58 25.8 69.58 25.58 L 69.58 19.97 L 72.02 19.97 L 74.95 25.8 C 74.99 25.89 75.1 26 75.3 26 L 77.61 26 C 77.98 26 78.14 25.65 77.98 25.36 L 74.97 19.77 C 76.88 19 78.22 17.35 78.22 15.33 C 78.22 12.71 76.07 10.6 73.43 10.6 L 67.14 10.6 C 66.89 10.6 66.72 10.8 66.72 11.02 L 66.72 25.58 Z M 69.6 17.62 L 69.6 13.24 L 73.19 13.24 C 74.35 13.24 75.36 14.21 75.36 15.37 C 75.36 16.61 74.35 17.62 73.19 17.62 L 69.6 17.62 Z M 83.44 25.58 C 83.44 25.8 83.64 26 83.86 26 L 85.9 26 C 86.12 26 86.32 25.8 86.32 25.58 L 86.32 13.24 L 89.69 13.24 C 89.93 13.24 90.1 13.04 90.1 12.82 L 90.1 11.02 C 90.1 10.8 89.93 10.6 89.69 10.6 L 80.07 10.6 C 79.83 10.6 79.65 10.8 79.65 11.02 L 79.65 12.82 C 79.65 13.04 79.83 13.24 80.07 13.24 L 83.44 13.24 L 83.44 25.58 Z M 83.44 25.58" />
    <path fill="#00a9fb" fill-rule="evenodd" d="M 11.04 30.45 C 8.21 27.27 6.5 23.09 6.5 18.5 C 6.5 8.56 14.56 0.5 24.5 0.5 C 25.33 0.5 26 1.17 26 2 C 26 2.83 25.33 3.5 24.5 3.5 C 16.22 3.5 9.5 10.22 9.5 18.5 C 9.5 26.79 16.22 33.51 24.5 33.51 C 25.33 33.51 26 34.18 26 35.01 C 26 35.84 25.33 36.51 24.5 36.51 C 20.23 36.51 16.3 35.02 13.21 32.52 L 3.06 42.67 C 2.47 43.26 1.53 43.26 0.94 42.67 C 0.35 42.08 0.35 41.13 0.94 40.55 L 11.04 30.45 Z M 11.04 30.45" />
    <path fill="#383c41" fill-rule="evenodd" d="M 193.17 25.58 C 193.17 25.8 193.35 26 193.57 26 L 198.78 26 C 203.03 26 206.51 22.55 206.51 18.28 C 206.51 14.05 203.03 10.6 198.78 10.6 L 193.57 10.6 C 193.35 10.6 193.17 10.8 193.17 11.02 L 193.17 25.58 Z M 196.01 23.32 L 196.01 13.26 L 198.52 13.26 C 201.38 13.26 203.47 15.42 203.47 18.28 C 203.47 21.16 201.38 23.32 198.52 23.32 L 196.01 23.32 Z M 178.52 25.58 C 178.52 25.8 178.7 26 178.94 26 L 180.96 26 C 181.18 26 181.38 25.8 181.38 25.58 L 181.38 19.97 L 183.82 19.97 L 186.75 25.8 C 186.79 25.89 186.9 26 187.1 26 L 189.41 26 C 189.79 26 189.94 25.65 189.79 25.36 L 186.77 19.77 C 188.69 19 190.03 17.35 190.03 15.33 C 190.03 12.71 187.87 10.6 185.23 10.6 L 178.94 10.6 C 178.7 10.6 178.52 10.8 178.52 11.02 L 178.52 25.58 Z M 181.4 17.62 L 181.4 13.24 L 184.99 13.24 C 186.16 13.24 187.17 14.21 187.17 15.37 C 187.17 16.61 186.16 17.62 184.99 17.62 L 181.4 17.62 Z M 162.31 26 L 164.22 26 C 164.57 26 164.77 25.78 164.86 25.56 L 165.94 23.18 L 172.52 23.18 L 173.59 25.56 C 173.75 25.87 173.9 26 174.23 26 L 176.15 26 C 176.48 26 176.65 25.71 176.52 25.43 L 169.74 10.62 C 169.68 10.49 169.59 10.38 169.37 10.38 L 169.15 10.38 C 168.95 10.38 168.84 10.49 168.78 10.62 L 161.93 25.43 C 161.8 25.71 161.98 26 162.31 26 Z M 167.02 20.74 L 169.17 15.9 L 169.24 15.9 L 171.44 20.74 L 167.02 20.74 Z M 145.24 18.32 C 145.24 22.72 148.73 26.22 153.13 26.22 C 157.53 26.22 161.05 22.72 161.05 18.32 C 161.05 13.92 157.53 10.38 153.13 10.38 C 148.73 10.38 145.24 13.92 145.24 18.32 Z M 148.1 18.32 C 148.1 15.55 150.36 13.24 153.13 13.24 C 155.91 13.24 158.19 15.55 158.19 18.32 C 158.19 21.09 155.91 23.36 153.13 23.36 C 150.36 23.36 148.1 21.09 148.1 18.32 Z M 132.76 25.58 C 132.76 25.8 132.94 26 133.18 26 L 138.5 26 C 141.19 26 143.3 24.22 143.3 21.75 C 143.3 19.73 141.61 18.54 140.44 18.17 C 141.47 17.68 142.86 16.36 142.86 14.67 C 142.86 12.36 140.84 10.6 138.22 10.6 L 133.18 10.6 C 132.94 10.6 132.76 10.8 132.76 11.02 L 132.76 25.58 Z M 135.6 23.4 L 135.6 19.49 L 138 19.49 C 139.14 19.49 140.24 20.3 140.24 21.4 C 140.24 22.55 139.36 23.4 138.26 23.4 L 135.6 23.4 Z M 135.6 17.07 L 135.6 13.22 L 137.95 13.22 C 139.08 13.22 139.85 13.99 139.85 15.09 C 139.85 16.19 139.08 17.07 137.95 17.07 L 135.6 17.07 Z M 119.19 25.58 C 119.19 25.8 119.36 26 119.61 26 L 124.93 26 C 127.61 26 129.73 24.22 129.73 21.75 C 129.73 19.73 128.03 18.54 126.87 18.17 C 127.9 17.68 129.29 16.36 129.29 14.67 C 129.29 12.36 127.26 10.6 124.64 10.6 L 119.61 10.6 C 119.36 10.6 119.19 10.8 119.19 11.02 L 119.19 25.58 Z M 122.03 23.4 L 122.03 19.49 L 124.42 19.49 C 125.57 19.49 126.67 20.3 126.67 21.4 C 126.67 22.55 125.79 23.4 124.69 23.4 L 122.03 23.4 Z M 122.03 17.07 L 122.03 13.22 L 124.38 13.22 C 125.5 13.22 126.27 13.99 126.27 15.09 C 126.27 16.19 125.5 17.07 124.38 17.07 L 122.03 17.07 Z M 100.49 18.32 C 100.49 22.72 103.99 26.22 108.39 26.22 C 112.79 26.22 116.31 22.72 116.31 18.32 C 116.31 13.92 112.79 10.38 108.39 10.38 C 103.99 10.38 100.49 13.92 100.49 18.32 Z M 103.35 18.32 C 103.35 15.55 105.61 13.24 108.39 13.24 C 111.16 13.24 113.45 15.55 113.45 18.32 C 113.45 21.09 111.16 23.36 108.39 23.36 C 105.61 23.36 103.35 21.09 103.35 18.32 Z M 90.04 24.61 C 90.41 25.08 91.47 26.22 93.38 26.22 C 95.96 26.22 98 24.46 98 21.4 L 98 11.02 C 98 10.8 97.83 10.6 97.58 10.6 L 95.52 10.6 C 95.27 10.6 95.1 10.8 95.1 11.02 L 95.1 21.4 C 95.1 22.92 94.2 23.62 93.34 23.62 C 92.61 23.62 92.17 23.23 91.89 22.92 C 91.69 22.72 91.47 22.68 91.23 22.9 L 90.08 24.06 C 89.95 24.22 89.93 24.44 90.04 24.61 Z M 90.04 24.61" />
</svg>