<svg width="12px" height="12px" viewBox="0 1 12 12" version="1.1" xmlns="http://www.w3.org/2000/svg" xmlns:xlink="http://www.w3.org/1999/xlink">
    <!-- Generator: Sketch 41 (35326) - http://www.bohemiancoding.com/sketch -->
    <desc>Created with Sketch.</desc>
    <defs></defs>
    <path d="M6,11.776 C6.8400042,11.776 7.62399636,11.5613355 8.352,11.132 C9.06133688,10.7213313 9.62133128,10.1613369 10.032,9.452 C10.4613355,8.72399636 10.676,7.9400042 10.676,7.1 C10.676,6.2599958 10.4613355,5.47600364 10.032,4.748 C9.62133128,4.03866312 9.06133688,3.47866872 8.352,3.068 C7.62399636,2.63866452 6.8400042,2.424 6,2.424 C5.1599958,2.424 4.37600364,2.63866452 3.648,3.068 C2.93866312,3.47866872 2.37866872,4.03866312 1.968,4.748 C1.53866452,5.47600364 1.324,6.2599958 1.324,7.1 C1.324,7.9400042 1.53866452,8.72399636 1.968,9.452 C2.37866872,10.1613369 2.93866312,10.7213313 3.648,11.132 C4.37600364,11.5613355 5.1599958,11.776 6,11.776 L6,11.776 Z M8.954,2.074 C9.83133772,2.57800252 10.5219975,3.26866228 11.026,4.146 C11.5580027,5.05133786 11.824,6.03599468 11.824,7.1 C11.824,8.16400532 11.5580027,9.14866214 11.026,10.054 C10.5219975,10.9313377 9.83133772,11.6219975 8.954,12.126 C8.04866214,12.6580027 7.06400532,12.924 6,12.924 C4.93599468,12.924 3.95133786,12.6580027 3.046,12.126 C2.16866228,11.6126641 1.47800252,10.9173377 0.974,10.04 C0.44199734,9.13466214 0.176,8.15467194 0.176,7.1 C0.176,6.04532806 0.44199734,5.06533786 0.974,4.16 C1.4873359,3.28266228 2.18266228,2.5873359 3.06,2.074 C3.96533786,1.54199734 4.94532806,1.276 6,1.276 C7.06400532,1.276 8.04866214,1.54199734 8.954,2.074 Z M5.426,4.174 L6.574,4.174 L6.574,7.674 L5.426,7.674 L5.426,4.174 Z M5.426,8.85 L6.574,8.85 L6.574,10.026 L5.426,10.026 L5.426,8.85 Z" id="error_outline---material" stroke="none" fill="#FF504D" fill-rule="evenodd"></path>
</svg>