<svg width="24px" height="21px" viewBox="3 4 24 21" version="1.1" xmlns="http://www.w3.org/2000/svg" xmlns:xlink="http://www.w3.org/1999/xlink">
    <!-- Generator: Sketch 41.2 (35397) - http://www.bohemiancoding.com/sketch -->
    <desc>Created with Sketch.</desc>
    <defs></defs>
    <path d="M19,16 L27,16 L27,17 L19,17 L19,18.9970707 C19,19.5621186 18.5536144,20 18.0029699,20 L11.9970301,20 C11.4530363,20 11,19.5509732 11,18.9970707 L11,17 L3,17 L3,16 L11,16 L11,14.0029293 C11,13.4378814 11.4463856,13 11.9970301,13 L18.0029699,13 C18.5469637,13 19,13.4490268 19,14.0029293 L19,16 Z M4,9 C3.44771525,9 3,9.44463086 3,10.0008717 L3,23.9991283 C3,24.5518945 3.44746922,25 4.00069463,25 L25.9993054,25 C26.5519738,25 27,24.5553691 27,23.9991283 L27,10.0008717 C27,9.4481055 26.5561352,9 26,9 L25,9 L22,9 L8,9 L5,9 L4,9 Z M17,15 L17,18 L13,18 L13,15 L17,15 Z M10.0024733,5 C9.44882258,5 9,5.44371665 9,5.99980749 L9,10 L21,10 L21,5.99980749 C21,5.44762906 20.544239,5 19.9975267,5 L10.0024733,5 Z M19,9 L11,9 L11,7 L19,7 L19,9 Z" id="Combined-Shape" stroke="none" fill-opacity="0.6" fill="#62D1A7" fill-rule="evenodd"></path>
</svg>